<svg xmlns="http://www.w3.org/2000/svg" xmlns:xlink="http://www.w3.org/1999/xlink" enable-background="new 0 0 180 180" viewBox="0 0 180 180" id="man"><circle cx="90" cy="90" r="77.31" fill="#2e8fc7"></circle><path fill="#efaa75" d="M107.88,143.69c-3.68-4.81-30.65-4.81-34.32,0c3.68-4.81,7.53-29.13,4.9-32.57
		c2.63,3.43,21.89,3.43,24.52,0C100.35,114.56,104.2,138.89,107.88,143.69z"></path><path fill="#37291f" d="M130.69,155.1c0.08,3.04-17.47,12.54-40.73,12.54s-39.94-9.32-39.91-12.54c0.04-5.16,8.14-13.54,8.14-13.54
			s10.23-4.71,16.79-6c4.77-0.93,9.72,5.68,15.15,5.68c5.74,0,11.44-6.55,16.43-5.52c6.23,1.29,15.99,5.84,15.99,5.84
			S130.55,149.94,130.69,155.1z"></path><defs><path id="a" d="M130.69,155.1c0.08,3.04-17.47,12.54-40.73,12.54s-39.94-9.32-39.91-12.54
						c0.04-5.16,8.14-13.54,8.14-13.54s10.23-4.71,16.79-6c4.77-0.93,9.72,5.68,15.15,5.68c5.74,0,11.44-6.55,16.43-5.52
						c6.23,1.29,15.99,5.84,15.99,5.84S130.55,149.94,130.69,155.1z"></path></defs><clipPath id="b"><use overflow="visible" xlink:href="#a"></use></clipPath><polygon fill="#d8d8d8" points="73.6 135.97 90.49 174.67 107.8 135.97 90.72 139.02" clip-path="url(#b)"></polygon><polygon fill="#e3e3e3" points="77.3 130.66 90.72 139.02 90.74 147.46 73.6 135.97"></polygon><polygon fill="#e3e3e3" points="104.05 130.66 90.67 139.02 90.66 147.46 107.8 135.97"></polygon><defs><path id="c" d="M130.69,155.1c0.08,3.04-17.47,12.54-40.73,12.54s-39.94-9.32-39.91-12.54
						c0.04-5.16,8.14-13.54,8.14-13.54s10.23-4.71,16.79-6c4.77-0.93,10.31,3.45,15.74,3.45c5.74,0,10.86-4.33,15.84-3.29
						c6.23,1.29,15.99,5.84,15.99,5.84S130.55,149.94,130.69,155.1z"></path></defs><clipPath id="d"><use overflow="visible" xlink:href="#c"></use></clipPath><g clip-path="url(#d)"><polygon fill="#25262a" points="90.49 174.67 95.59 163.27 93.88 146.9 95.51 144.81 90.67 139.02 84.86 145.11 86.88 147.14 85.57 163.4"></polygon></g><defs><path id="e" d="M130.69,155.1c0.08,3.04-17.47,12.54-40.73,12.54s-39.94-9.32-39.91-12.54
						c0.04-5.16,8.14-13.54,8.14-13.54s10.23-4.71,16.79-6c4.77-0.93,9.72,5.68,15.15,5.68c5.74,0,11.44-6.55,16.43-5.52
						c6.23,1.29,15.99,5.84,15.99,5.84S130.55,149.94,130.69,155.1z"></path></defs><clipPath id="f"><use overflow="visible" xlink:href="#e"></use></clipPath><g clip-path="url(#f)"><polyline fill="none" stroke="#1b1202" stroke-miterlimit="10" stroke-width=".54" points="67.81 137.88 70.78 156.73 77.29 159.36 73.6 163.94 90.72 185.23"></polyline><polyline fill="none" stroke="#1b1202" stroke-miterlimit="10" stroke-width=".54" points="113.51 137.88 110.54 156.73 104.03 159.36 107.72 163.94 90.6 185.23"></polyline></g><path fill="#ffba81" d="M123.4,81.26c0,19.9-14.73,39.7-32.72,39.7s-32.72-19.8-32.72-39.7V51.34
		c0-19.9,14.73-36.18,32.72-36.18s32.72,16.28,32.72,36.18V81.26z"></path><g><ellipse cx="52.83" cy="74.21" fill="#efaa75" rx="5.43" ry="10.34" transform="rotate(-6.206 52.83 74.21)"></ellipse><path fill="none" stroke="#c98a5b" stroke-linecap="round" stroke-linejoin="round" stroke-miterlimit="10" stroke-width=".54" d="M57.13 70.68c0 0-4.34-7.27-8.44.47M55.72 69.39c0 0-4.22 3.17-4.81 9.62"></path><g><ellipse cx="128.41" cy="73.94" fill="#efaa75" rx="10.34" ry="5.43" transform="rotate(-83.794 128.417 73.947)"></ellipse><path fill="none" stroke="#c98a5b" stroke-linecap="round" stroke-linejoin="round" stroke-miterlimit="10" stroke-width=".54" d="M124.12 70.42c0 0 4.34-7.27 8.44.47M125.52 69.13c0 0 4.22 3.17 4.81 9.62"></path></g></g><g><path fill="#65463b" d="M82.28 51.35c0 0 .35-2.64-1.58-2.99-1.94-.35-14.95 3.52-15.66 4.4-.7.88 0 4.93 0 4.93S76.47 50.64 82.28 51.35zM96.53 49.23c0 0 9.24-1.7 15.66 3.34 2.46 1.94 1.58 3.69 1.58 3.69s-12.01-4.17-18.12-2.64C94.24 53.98 96.53 49.23 96.53 49.23z"></path></g><polyline fill="none" stroke="#c98a5b" stroke-miterlimit="10" stroke-width="1.26" points="93.07 59.97 90.37 64.19 90.72 81.96 98.46 81.78 97.58 87.59 91.6 90.4"></polyline><g><path fill="#eaa471" d="M122.78,88.38c0.14-0.77,0.52-3.29,0.52-4.49c0,0-19.97,7.04-33.05,7.04c-13.37,0-32.22-7.04-32.22-7.04
			s0.32,3.75,0.54,4.49c2.97,17.24,16.27,32.57,32.1,32.57S119.81,105.62,122.78,88.38z"></path><line x1="64.68" x2="65.74" y1="88.11" y2="91.28" fill="none" stroke="#d69163" stroke-linecap="round" stroke-linejoin="round" stroke-miterlimit="10" stroke-width=".9"></line><line x1="63.28" x2="64.33" y1="93.27" y2="96.21" fill="none" stroke="#d69163" stroke-linecap="round" stroke-linejoin="round" stroke-miterlimit="10" stroke-width=".72"></line><line x1="71.02" x2="72.43" y1="95.62" y2="98.44" fill="none" stroke="#d69163" stroke-linecap="round" stroke-linejoin="round" stroke-miterlimit="10" stroke-width=".54"></line><line x1="72.78" x2="73.13" y1="101.19" y2="103.13" fill="none" stroke="#d69163" stroke-linecap="round" stroke-linejoin="round" stroke-miterlimit="10" stroke-width=".72"></line><line x1="66.33" x2="67.15" y1="99.61" y2="102.77" fill="none" stroke="#d69163" stroke-linecap="round" stroke-linejoin="round" stroke-miterlimit="10" stroke-width=".54"></line><line x1="78.76" x2="78.64" y1="99.73" y2="102.54" fill="none" stroke="#d69163" stroke-linecap="round" stroke-linejoin="round" stroke-miterlimit="10" stroke-width=".54"></line><line x1="70.2" x2="71.02" y1="105.82" y2="108.99" fill="none" stroke="#d69163" stroke-linecap="round" stroke-linejoin="round" stroke-miterlimit="10" stroke-width=".54"></line><line x1="75.71" x2="77.12" y1="113.1" y2="115.38" fill="none" stroke="#d69163" stroke-linecap="round" stroke-linejoin="round" stroke-miterlimit="10" stroke-width=".9"></line><line x1="76.88" x2="77.82" y1="107.82" y2="110.87" fill="none" stroke="#d69163" stroke-linecap="round" stroke-linejoin="round" stroke-miterlimit="10" stroke-width=".54"></line><line x1="82.75" x2="82.98" y1="108.87" y2="111.96" fill="none" stroke="#d69163" stroke-linecap="round" stroke-linejoin="round" stroke-miterlimit="10" stroke-width=".72"></line><line x1="85.8" x2="86.5" y1="115.09" y2="117.9" fill="none" stroke="#d69163" stroke-linecap="round" stroke-linejoin="round" stroke-miterlimit="10" stroke-width=".9"></line><line x1="89.55" x2="89.31" y1="106.41" y2="109.46" fill="none" stroke="#d69163" stroke-linecap="round" stroke-linejoin="round" stroke-miterlimit="10" stroke-width=".54"></line><line x1="87.67" x2="87.78" y1="101.84" y2="103.48" fill="none" stroke="#d69163" stroke-linecap="round" stroke-linejoin="round" stroke-miterlimit="10" stroke-width=".9"></line><line x1="70.9" x2="71.02" y1="90.11" y2="92.1" fill="none" stroke="#d69163" stroke-linecap="round" stroke-linejoin="round" stroke-miterlimit="10" stroke-width=".72"></line><line x1="76.88" x2="76.53" y1="90.81" y2="92.81" fill="none" stroke="#d69163" stroke-linecap="round" stroke-linejoin="round" stroke-miterlimit="10" stroke-width=".54"></line><line x1="83.33" x2="83.8" y1="93.39" y2="95.39" fill="none" stroke="#d69163" stroke-linecap="round" stroke-linejoin="round" stroke-miterlimit="10" stroke-width=".54"></line><line x1="89.47" x2="89.78" y1="92.41" y2="95.39" fill="none" stroke="#d69163" stroke-linecap="round" stroke-linejoin="round" stroke-miterlimit="10" stroke-width=".72"></line><line x1="95.53" x2="95.18" y1="94.13" y2="96.32" fill="none" stroke="#d69163" stroke-linecap="round" stroke-linejoin="round" stroke-miterlimit="10" stroke-width=".54"></line><line x1="99.99" x2="99.87" y1="91.32" y2="92.92" fill="none" stroke="#d69163" stroke-linecap="round" stroke-linejoin="round" stroke-miterlimit="10" stroke-width=".72"></line><line x1="108.99" x2="109.48" y1="92.66" y2="89.45" fill="none" stroke="#d69163" stroke-linecap="round" stroke-linejoin="round" stroke-miterlimit="10" stroke-width=".54"></line><line x1="117.46" x2="116.99" y1="86.94" y2="89.76" fill="none" stroke="#d69163" stroke-linecap="round" stroke-linejoin="round" stroke-miterlimit="10" stroke-width=".9"></line><line x1="101.04" x2="99.81" y1="100.31" y2="102.72" fill="none" stroke="#d69163" stroke-linecap="round" stroke-linejoin="round" stroke-miterlimit="10" stroke-width=".54"></line><line x1="107.02" x2="105.97" y1="98.14" y2="100.78" fill="none" stroke="#d69163" stroke-linecap="round" stroke-linejoin="round" stroke-miterlimit="10" stroke-width=".54"></line><line x1="113.71" x2="111.95" y1="95.86" y2="98.32" fill="none" stroke="#d69163" stroke-linecap="round" stroke-linejoin="round" stroke-miterlimit="10" stroke-width=".72"></line><line x1="119.34" x2="117.93" y1="92.69" y2="95.33" fill="none" stroke="#d69163" stroke-linecap="round" stroke-linejoin="round" stroke-miterlimit="10" stroke-width=".36"></line><line x1="107.2" x2="105.79" y1="104.12" y2="106.59" fill="none" stroke="#d69163" stroke-linecap="round" stroke-linejoin="round" stroke-miterlimit="10" stroke-width=".72"></line><line x1="96.12" x2="95.18" y1="107.64" y2="110.4" fill="none" stroke="#d69163" stroke-linecap="round" stroke-linejoin="round" stroke-miterlimit="10" stroke-width=".54"></line><line x1="107.61" x2="105.5" y1="110.87" y2="113.21" fill="none" stroke="#d69163" stroke-linecap="round" stroke-linejoin="round" stroke-miterlimit="10" stroke-width=".72"></line><line x1="100.57" x2="99.99" y1="110.63" y2="112.74" fill="none" stroke="#d69163" stroke-linecap="round" stroke-linejoin="round" stroke-miterlimit="10" stroke-width=".54"></line><line x1="95.41" x2="94.71" y1="114.15" y2="116.97" fill="none" stroke="#d69163" stroke-linecap="round" stroke-linejoin="round" stroke-miterlimit="10" stroke-width=".72"></line><line x1="112.79" x2="112.07" y1="103.71" y2="105.94" fill="none" stroke="#d69163" stroke-linecap="round" stroke-linejoin="round" stroke-miterlimit="10" stroke-width=".9"></line><line x1="116.29" x2="115.35" y1="100.31" y2="102.42" fill="none" stroke="#d69163" stroke-linecap="round" stroke-linejoin="round" stroke-miterlimit="10" stroke-width=".54"></line></g><g><line x1="79.29" x2="77.35" y1="94.62" y2="96.73" fill="none" stroke="#442007" stroke-linecap="round" stroke-miterlimit="10" stroke-width=".9"></line><line x1="104.56" x2="106.5" y1="94.62" y2="96.73" fill="none" stroke="#442007" stroke-linecap="round" stroke-miterlimit="10" stroke-width=".9"></line><path fill="none" stroke="#442007" stroke-miterlimit="10" stroke-width=".9" d="M105.37,95.65c-2.36,2.51-7.55,4.26-13.57,4.26c-6,0-11.18-1.73-13.55-4.23"></path></g><g><path fill="#f7ede7" d="M98.52,68.64c0.26,0.83,1.72,3.36,6.1,3.75c3.92,0.35,6.65-1.46,6.65-4.14s-2.88-5.24-6.52-5.24
					c-1.82,0-4.55-0.08-5.84,0.65C98.13,64.11,98.11,67.34,98.52,68.64z" enable-background="new" opacity=".5"></path><path fill="#65463b" d="M110.38,65.51c0,0-4.3-4.71-11.47-1.84C98.91,63.67,104.23,63.26,110.38,65.51z"></path><circle cx="104.84" cy="67.97" r="4.1" fill="#65463b"></circle><g><path fill="#f7ede7" d="M82.75,68.64c-0.26,0.83-1.72,3.36-6.1,3.75C72.73,72.75,70,70.94,70,68.25s2.88-5.24,6.52-5.24
				c1.82,0,4.55-0.08,5.84,0.65C83.14,64.11,83.15,67.34,82.75,68.64z" enable-background="new" opacity=".5"></path><path fill="#65463b" d="M70.89,65.51c0,0,4.3-4.71,11.47-1.84C82.36,63.67,77.03,63.26,70.89,65.51z"></path><circle cx="76.43" cy="67.97" r="4.1" fill="#65463b"></circle></g></g><g><path fill="#d8a177" d="M96.07,71.91c0.18,1.17,1.31,2.13,2.49,2.13h16.79c1.19,0,2.28-0.96,2.43-2.14l0.94-7.46
					c0.15-1.18-0.69-2.28-1.87-2.45l-20.71-2.93c-1.18-0.17-1.99,0.66-1.8,1.83L96.07,71.91z" opacity=".39"></path><polygon fill="#ffe8d9" points="94.72 58.88 94.55 61.7 95.78 71.37 97.36 73.66 102.29 73.83 110.38 60.99" enable-background="new" opacity=".3"></polygon><path fill="none" stroke="#66391b" stroke-miterlimit="10" stroke-width=".9" d="M96.07,71.91c0.18,1.17,1.31,2.13,2.49,2.13h16.79c1.19,0,2.28-0.96,2.43-2.14l0.94-7.46
					c0.15-1.18-0.69-2.28-1.87-2.45l-20.71-2.93c-1.18-0.17-1.99,0.66-1.8,1.83L96.07,71.91z"></path><path fill="#66391b" d="M123.43,66.89l-0.16-0.49l-4.87-4.09l-0.28,0.67l1.34,1.97l3.23,2.4l0.65,1.62
				c0.1,0.24,0.46,0.18,0.48-0.08v-0.01C123.98,68.96,123.48,67.05,123.43,66.89z"></path><g><path fill="#d8a177" d="M85.19,71.91c-0.18,1.17-1.31,2.13-2.49,2.13H65.91c-1.19,0-2.28-0.96-2.43-2.14l-0.94-7.46
					c-0.15-1.18,0.69-2.28,1.87-2.45l20.71-2.93c1.18-0.17,1.99,0.66,1.8,1.83L85.19,71.91z" opacity=".39"></path><polygon fill="#ffe8d9" points="62.87 62.31 62.88 67.5 64.46 73.83 70.44 73.83 78.54 60.11" enable-background="new" opacity=".3"></polygon><path fill="none" stroke="#66391b" stroke-miterlimit="10" stroke-width=".9" d="M85.19,71.91c-0.18,1.17-1.31,2.13-2.49,2.13H65.91c-1.19,0-2.28-0.96-2.43-2.14l-0.94-7.46
					c-0.15-1.18,0.69-2.28,1.87-2.45l20.71-2.93c1.18-0.17,1.99,0.66,1.8,1.83L85.19,71.91z"></path><path fill="#66391b" d="M57.83,66.89L58,66.4l4.87-4.09l0.28,0.67l-1.34,1.97l-3.23,2.4l-0.65,1.62c-0.1,0.24-0.46,0.18-0.48-0.08
				v-0.01C57.29,68.96,57.78,67.05,57.83,66.89z"></path></g><line x1="86.79" x2="94.42" y1="62.78" y2="62.72" fill="none" stroke="#66391b" stroke-miterlimit="10" stroke-width="1.44"></line></g><g><path fill="#442007" d="M58.19,72.32c0,0,6.96-30.42,7.66-36.05c0,0,34.01,10.32,51.84,0c0,0,6.51,21.52,5.55,35.34
			c0-0.23,12.51-25.72,5.47-46.37c-2.58-5.86-11.49-6.1-11.49-6.1s9.62-4.46,5.4-9.85c-4.22-5.4-22.28-12.2-44.33,5.4
			c-4.22,3.52,7.68-10.18,2.11-8.21C72.43,9.3,60.81,17.82,55.77,37.92C50.53,58.79,58.19,72.32,58.19,72.32z"></path><path fill="none" stroke="#592e11" stroke-linecap="round" stroke-linejoin="round" stroke-miterlimit="10" stroke-width=".72" d="M81.1 20.56c0 0 18.3-15.95 34.43-9.45M57.95 51.34c0 0-.01-10.73 5.27-20.05M70.19 29.77c0 0 23.56 9.78 45.34-1.78 10.67-5.78 10.22 28.45 10.22 28.45"></path></g></svg>